<svg xmlns="http://www.w3.org/2000/svg" xmlns:xlink="http://www.w3.org/1999/xlink" viewBox="0 0 380 650" width="380" height="650" font-family="ui-monospace, SFMono-Regular, Menlo, Consolas, monospace">
<rect x="88" y="72" width="8" height="544" fill="#e8e8e8"/>
<rect x="80" y="48" width="8" height="8" fill="#e8e8e8"/>
<rect x="88" y="48" width="8" height="8" fill="#e8e8e8"/>
<rect x="72" y="56" width="8" height="8" fill="#e8e8e8"/>
<rect x="80" y="56" width="8" height="8" fill="#e8e8e8"/>
<rect x="88" y="56" width="8" height="8" fill="#e8e8e8"/>
<rect x="96" y="56" width="8" height="8" fill="#e8e8e8"/>
<rect x="80" y="64" width="8" height="8" fill="#e8e8e8"/>
<rect x="88" y="64" width="8" height="8" fill="#e8e8e8"/>
<rect x="88" y="128" width="8" height="8" fill="#e8e8e8"/>
<rect x="80" y="136" width="8" height="8" fill="#e8e8e8"/>
<rect x="88" y="136" width="8" height="8" fill="#e8e8e8"/>
<rect x="96" y="136" width="8" height="8" fill="#e8e8e8"/>
<rect x="88" y="144" width="8" height="8" fill="#e8e8e8"/>
<rect x="88" y="168" width="8" height="8" fill="#e8e8e8"/>
<rect x="72" y="176" width="8" height="8" fill="#e8e8e8"/>
<rect x="80" y="176" width="8" height="8" fill="#e8e8e8"/>
<rect x="88" y="176" width="8" height="8" fill="#e8e8e8"/>
<rect x="72" y="184" width="8" height="8" fill="#e8e8e8"/>
<rect x="80" y="184" width="8" height="8" fill="#e8e8e8"/>
<a xlink:href="https://github.com/tdi-rosa/epub-translator-vllm" target="_blank"><text x="112" y="131" font-size="10" letter-spacing="0.5" fill="#e8e8e8" opacity="0.55">JUILLET 2026</text><text x="112" y="147" font-size="16" font-weight="700" fill="#e8e8e8">epub-translator-vllm</text></a>
<rect x="88" y="272" width="8" height="8" fill="#e8e8e8"/>
<rect x="80" y="280" width="8" height="8" fill="#e8e8e8"/>
<rect x="88" y="280" width="8" height="8" fill="#e8e8e8"/>
<rect x="96" y="280" width="8" height="8" fill="#e8e8e8"/>
<rect x="88" y="288" width="8" height="8" fill="#e8e8e8"/>
<rect x="88" y="312" width="8" height="8" fill="#e8e8e8"/>
<rect x="88" y="320" width="8" height="8" fill="#e8e8e8"/>
<rect x="96" y="320" width="8" height="8" fill="#e8e8e8"/>
<rect x="104" y="320" width="8" height="8" fill="#e8e8e8"/>
<rect x="96" y="328" width="8" height="8" fill="#e8e8e8"/>
<rect x="104" y="328" width="8" height="8" fill="#e8e8e8"/>
<a xlink:href="https://github.com/tdi-rosa/parlementclair" target="_blank"><text x="112" y="275" font-size="10" letter-spacing="0.5" fill="#e8e8e8" opacity="0.55">JUIN 2026 · HACKATHON ASSEMBLÉE NAT.</text><text x="112" y="291" font-size="16" font-weight="700" fill="#e8e8e8">parlementclair</text></a>
<rect x="88" y="416" width="8" height="8" fill="#e8e8e8"/>
<rect x="80" y="424" width="8" height="8" fill="#e8e8e8"/>
<rect x="88" y="424" width="8" height="8" fill="#e8e8e8"/>
<rect x="96" y="424" width="8" height="8" fill="#e8e8e8"/>
<rect x="88" y="432" width="8" height="8" fill="#e8e8e8"/>
<text x="112" y="419" font-size="10" letter-spacing="0.5" fill="#e8e8e8" opacity="0.55">MAI 2026</text><text x="112" y="435" font-size="16" font-weight="700" fill="#e8e8e8">Cursus orienté IA</text>
<rect x="88" y="560" width="8" height="8" fill="#e8e8e8"/>
<rect x="80" y="568" width="8" height="8" fill="#e8e8e8"/>
<rect x="88" y="568" width="8" height="8" fill="#e8e8e8"/>
<rect x="96" y="568" width="8" height="8" fill="#e8e8e8"/>
<rect x="88" y="576" width="8" height="8" fill="#e8e8e8"/>
<text x="112" y="563" font-size="10" letter-spacing="0.5" fill="#e8e8e8" opacity="0.55">AVRIL 2026</text><text x="112" y="579" font-size="16" font-weight="700" fill="#e8e8e8">Entrée à l'école 42</text>
<rect x="64" y="616" width="8" height="8" fill="#e8e8e8"/>
<rect x="72" y="616" width="8" height="8" fill="#e8e8e8"/>
<rect x="80" y="616" width="8" height="8" fill="#e8e8e8"/>
<rect x="88" y="616" width="8" height="8" fill="#e8e8e8"/>
<rect x="96" y="616" width="8" height="8" fill="#e8e8e8"/>
<rect x="104" y="616" width="8" height="8" fill="#e8e8e8"/>
<rect x="112" y="616" width="8" height="8" fill="#e8e8e8"/>
<rect x="72" y="624" width="8" height="8" fill="#e8e8e8"/>
<rect x="80" y="624" width="8" height="8" fill="#e8e8e8"/>
<rect x="88" y="624" width="8" height="8" fill="#e8e8e8"/>
<rect x="96" y="624" width="8" height="8" fill="#e8e8e8"/>
<rect x="104" y="624" width="8" height="8" fill="#e8e8e8"/>
<rect x="80" y="632" width="8" height="8" fill="#e8e8e8"/>
<rect x="88" y="632" width="8" height="8" fill="#e8e8e8"/>
<rect x="96" y="632" width="8" height="8" fill="#e8e8e8"/>
</svg>
