<svg xmlns="http://www.w3.org/2000/svg" width="640" height="520" viewBox="0 0 640 520" font-family="ui-monospace, SFMono-Regular, Menlo, monospace">
  <rect width="640" height="520" fill="#ffffff"></rect>

  <text x="320" y="44" text-anchor="middle" font-size="11" letter-spacing="2" fill="#767676">// JOURNEY</text>
  <text x="320" y="68" text-anchor="middle" font-size="20" font-weight="700" fill="#111111">my_github_timeline</text>

  <line x1="320" y1="100" x2="320" y2="470" stroke="#111111" stroke-width="2"></line>

  
  <circle cx="320" cy="140" r="5" fill="#ffffff" stroke="#111111" stroke-width="1.5"></circle>
  <text x="336" y="136" font-size="11" letter-spacing="1" fill="#767676">APR 2026</text>
  <text x="336" y="152" font-size="13" font-weight="500" fill="#444444">STARTED AT 42 (PARIS)</text>

  
  <rect x="315" y="255" width="10" height="10" fill="#111111"></rect>
  <a href="https://github.com/tdi-rosa/parlementclair" target="_blank">
    <text x="336" y="230" font-size="11" letter-spacing="1" fill="#767676">JUN 2026</text>
    <text x="336" y="248" font-size="15" font-weight="700" fill="#111111">parlementclair</text>
    <rect x="336" y="256" width="66" height="16" rx="8" fill="#ffe8cc"></rect>
    <text x="345" y="268" font-size="10" font-weight="600" fill="#8a4b00">HACKATHON</text>
    <text x="336" y="290" font-size="12" fill="#444444">AI legal chatbot for the French</text>
    <text x="336" y="306" font-size="12" fill="#444444">National Assembly hackathon</text>
    <rect x="336" y="228" width="270" height="90" fill="transparent"></rect>
  </a>

  
  <rect x="315" y="385" width="10" height="10" fill="#111111"></rect>
  <a href="https://github.com/tdi-rosa/epub-translator-vllm" target="_blank">
    <text x="336" y="360" font-size="11" letter-spacing="1" fill="#767676">JUL 2026</text>
    <text x="336" y="378" font-size="15" font-weight="700" fill="#111111">epub-translator-vllm</text>
    <rect x="336" y="386" width="58" height="16" rx="8" fill="#dcefe2"></rect>
    <text x="343" y="398" font-size="10" font-weight="600" fill="#1f6b3a">PERSONAL</text>
    <text x="336" y="420" font-size="12" fill="#444444">Self-hosted EPUB translator</text>
    <text x="336" y="436" font-size="12" fill="#444444">running Qwen3.5 on vLLM</text>
    <rect x="336" y="358" width="270" height="90" fill="transparent"></rect>
  </a>
</svg>